<svg xmlns="http://www.w3.org/2000/svg" fill="none" viewBox="-0.75 -0.25 26 26" id="Accounting-Coins--Streamline-Ultimate"><desc>Accounting Coins Streamline Icon: https://streamlinehq.com</desc><path fill="#ffef5e" d="M24.028846153846153 8.82103846153846a7.355769230769231 7.355769230769231 0 0 1 -7.355769230769231 7.355769230769231 4.452692307692308 4.452692307692308 0 0 1 -0.51 -0.02942307692307692 7.321442307692307 7.321442307692307 0 0 1 -6.816346153846154 -6.806538461538461 4.616480769230769 4.616480769230769 0 0 1 -0.02942307692307692 -0.5198076923076923 7.355769230769231 7.355769230769231 0 0 1 14.711538461538462 0Z" stroke-width="0.5"></path><path fill="#fffad6" d="M16.673076923076923 1.4652692307692308a7.355769230769231 7.355769230769231 0 0 0 -7.355769230769231 7.355769230769231c0 0.17359615384615382 0.009807692307692307 0.34719230769230763 0.02942307692307692 0.5198076923076923a7.304769230769231 7.304769230769231 0 0 0 2.091 4.641l10.396153846153846 -10.396153846153846A7.330269230769231 7.330269230769231 0 0 0 16.673076923076923 1.4652692307692308Z" stroke-width="0.5"></path><path fill="#ffbc44" d="M16.16601923076923 16.147384615384613a7.361653846153846 7.361653846153846 0 1 1 -6.816346153846154 -6.806538461538461 7.321442307692307 7.321442307692307 0 0 0 6.816346153846154 6.806538461538461Z" stroke-width="0.5"></path><path fill="#ffdda1" d="M9.349673076923075 9.340846153846153a7.355769230769231 7.355769230769231 0 0 0 -5.763980769230769 12.49598076923077l7.854980769230769 -7.854980769230769a7.304769230769231 7.304769230769231 0 0 1 -2.091 -4.641Z" stroke-width="0.5"></path><path stroke="#191919" stroke-linecap="round" stroke-linejoin="round" d="M24.028846153846153 8.82103846153846a7.355769230769231 7.355769230769231 0 0 1 -7.355769230769231 7.355769230769231 4.452692307692308 4.452692307692308 0 0 1 -0.51 -0.02942307692307692 7.321442307692307 7.321442307692307 0 0 1 -6.816346153846154 -6.806538461538461 4.616480769230769 4.616480769230769 0 0 1 -0.02942307692307692 -0.5198076923076923 7.355769230769231 7.355769230769231 0 0 1 14.711538461538462 0v0Z" stroke-width="0.5"></path><path stroke="#191919" stroke-linecap="round" stroke-linejoin="round" d="M16.16601923076923 16.147384615384613a7.361653846153846 7.361653846153846 0 1 1 -6.816346153846154 -6.806538461538461 7.321442307692307 7.321442307692307 0 0 0 6.816346153846154 6.806538461538461v0Z" stroke-width="0.5"></path><path stroke="#191919" stroke-linecap="round" stroke-linejoin="round" d="M8.343403846153846 14.21526923076923v-0.9807692307692307" stroke-width="0.5"></path><path stroke="#191919" stroke-linecap="round" stroke-linejoin="round" d="M9.807692307692307 14.21526923076923H7.820653846153846a1.3161923076923077 1.3161923076923077 0 0 0 -0.49038461538461536 2.5372500000000002l2.0243076923076924 0.8101153846153846a1.3161923076923077 1.3161923076923077 0 0 1 -0.49038461538461536 2.5372500000000002H6.865384615384615" stroke-width="0.5"></path><path stroke="#191919" stroke-linecap="round" stroke-linejoin="round" d="M8.343403846153846 21.080653846153844v-0.9807692307692307" stroke-width="0.5"></path><path stroke="#191919" stroke-linecap="round" stroke-linejoin="round" d="M16.679942307692308 5.878730769230769v-0.9807692307692307" stroke-width="0.5"></path><path stroke="#191919" stroke-linecap="round" stroke-linejoin="round" d="M18.14423076923077 5.878730769230769h-1.9870384615384613a1.3161923076923077 1.3161923076923077 0 0 0 -0.49038461538461536 2.5372500000000002l2.0243076923076924 0.8101153846153846a1.3161923076923077 1.3161923076923077 0 0 1 -0.49038461538461536 2.5372500000000002H15.201923076923077" stroke-width="0.5"></path><path stroke="#191919" stroke-linecap="round" stroke-linejoin="round" d="M16.679942307692308 12.744115384615384v-0.9807692307692307" stroke-width="0.5"></path></svg>