<svg xmlns="http://www.w3.org/2000/svg" fill="none" viewBox="0 0 24 24" id="Video-Game-Xbox-Controller--Streamline-Ultimate"><desc>Video Game Xbox Controller Streamline Icon: https://streamlinehq.com</desc><path fill="#e3e3e3" d="M23.5 11.5a4 4 0 0 0 -4 -4h-15a4 4 0 0 0 -4 4v10.418A1.586 1.586 0 0 0 2.126 23.5c1.84 -0.025 1.054 0.367 4.49 -5.508A3.007 3.007 0 0 1 9.21 16.5h5.579a3 3 0 0 1 2.588 1.482c3.359 5.76 2.623 5.511 4.483 5.518a1.625 1.625 0 0 0 1.639 -1.62L23.5 11.5Z" stroke-width="1"></path><path fill="#ffffff" d="M4.5 10h15a4 4 0 0 1 4 4v-2.5a4 4 0 0 0 -4 -4h-15a4 4 0 0 0 -4 4V14a4 4 0 0 1 4 -4Z" stroke-width="1"></path><path stroke="#191919" stroke-linecap="round" stroke-linejoin="round" d="M23.5 11.5a4 4 0 0 0 -4 -4h-15a4 4 0 0 0 -4 4v10.418A1.586 1.586 0 0 0 2.126 23.5c1.84 -0.025 1.054 0.367 4.49 -5.508A3.007 3.007 0 0 1 9.21 16.5h5.579a3 3 0 0 1 2.588 1.482c3.359 5.76 2.623 5.511 4.483 5.518a1.625 1.625 0 0 0 1.639 -1.62L23.5 11.5Z" stroke-width="1"></path><path stroke="#191919" stroke-linecap="round" stroke-linejoin="round" d="M5.5 10.499v4" stroke-width="1"></path><path stroke="#191919" stroke-linecap="round" stroke-linejoin="round" d="M7.5 12.499H3.501" stroke-width="1"></path><path stroke="#191919" stroke-linecap="round" stroke-linejoin="round" d="M10 14.499h1" stroke-width="1"></path><path stroke="#191919" stroke-linecap="round" stroke-linejoin="round" d="M13 14.499h1" stroke-width="1"></path><path fill="#808080" stroke="#191919" stroke-linecap="round" stroke-linejoin="round" d="M14 6.5a1 1 0 0 0 -1 -1h-2a1 1 0 0 0 -1 1v1h4v-1Z" stroke-width="1"></path><path stroke="#191919" stroke-linecap="round" stroke-linejoin="round" d="M12 5.5V3A2.507 2.507 0 0 0 9.5 0.5H5" stroke-width="1"></path><path stroke="#191919" stroke-linecap="round" stroke-linejoin="round" d="M18.5 10.249a0.25 0.25 0 0 1 0.25 0.25" stroke-width="1"></path><path stroke="#191919" stroke-linecap="round" stroke-linejoin="round" d="M18.25 10.5a0.25 0.25 0 0 1 0.25 -0.25" stroke-width="1"></path><path stroke="#191919" stroke-linecap="round" stroke-linejoin="round" d="M18.5 10.749a0.25 0.25 0 0 1 -0.25 -0.25" stroke-width="1"></path><path stroke="#191919" stroke-linecap="round" stroke-linejoin="round" d="M18.75 10.5a0.25 0.25 0 0 1 -0.25 0.25" stroke-width="1"></path><path stroke="#191919" stroke-linecap="round" stroke-linejoin="round" d="M16.5 12.249a0.25 0.25 0 0 1 0.25 0.25" stroke-width="1"></path><path stroke="#191919" stroke-linecap="round" stroke-linejoin="round" d="M16.25 12.5a0.25 0.25 0 0 1 0.25 -0.25" stroke-width="1"></path><path stroke="#191919" stroke-linecap="round" stroke-linejoin="round" d="M16.5 12.749a0.25 0.25 0 0 1 -0.25 -0.25" stroke-width="1"></path><path stroke="#191919" stroke-linecap="round" stroke-linejoin="round" d="M16.75 12.5a0.25 0.25 0 0 1 -0.25 0.25" stroke-width="1"></path><path stroke="#191919" stroke-linecap="round" stroke-linejoin="round" d="M18.5 14.249a0.25 0.25 0 0 1 0.25 0.25" stroke-width="1"></path><path stroke="#191919" stroke-linecap="round" stroke-linejoin="round" d="M18.25 14.5a0.25 0.25 0 0 1 0.25 -0.25" stroke-width="1"></path><path stroke="#191919" stroke-linecap="round" stroke-linejoin="round" d="M18.5 14.749a0.25 0.25 0 0 1 -0.25 -0.25" stroke-width="1"></path><path stroke="#191919" stroke-linecap="round" stroke-linejoin="round" d="M18.75 14.5a0.25 0.25 0 0 1 -0.25 0.25" stroke-width="1"></path><path stroke="#191919" stroke-linecap="round" stroke-linejoin="round" d="M20.5 12.249a0.25 0.25 0 0 1 0.25 0.25" stroke-width="1"></path><path stroke="#191919" stroke-linecap="round" stroke-linejoin="round" d="M20.249 12.5a0.25 0.25 0 0 1 0.25 -0.25" stroke-width="1"></path><path stroke="#191919" stroke-linecap="round" stroke-linejoin="round" d="M20.5 12.749a0.25 0.25 0 0 1 -0.25 -0.25" stroke-width="1"></path><path stroke="#191919" stroke-linecap="round" stroke-linejoin="round" d="M20.749 12.5a0.25 0.25 0 0 1 -0.25 0.25" stroke-width="1"></path></svg>