<svg xmlns="http://www.w3.org/2000/svg" fill="none" viewBox="-0.25 -0.25 24 24" id="List-To-Do--Streamline-Ultimate"><desc>List To Do Streamline Icon: https://streamlinehq.com</desc><path fill="#e3e3e3" d="M20.072916666666664 23.010416666666664h-16.645833333333332a0.9791666666666666 0.9791666666666666 0 0 1 -0.9791666666666666 -0.9791666666666666v-20.5625a0.9791666666666666 0.9791666666666666 0 0 1 0.9791666666666666 -0.9791666666666666h13.014104166666666a0.9791666666666666 0.9791666666666666 0 0 1 0.6942291666666666 0.2868958333333333L20.766166666666663 4.40625a0.9791666666666666 0.9791666666666666 0 0 1 0.2868958333333333 0.6922708333333333V22.03125a0.9791666666666666 0.9791666666666666 0 0 1 -0.9801458333333332 0.9791666666666666Z" stroke-width="0.5"></path><path fill="#ffffff" d="M18.951770833333335 2.5928333333333335 17.135416666666664 0.7764791666666667A0.9791666666666666 0.9791666666666666 0 0 0 16.441187499999998 0.4895833333333333H3.427083333333333a0.9791666666666666 0.9791666666666666 0 0 0 -0.9791666666666666 0.9791666666666666v17.629895833333332L18.951770833333335 2.5928333333333335Z" stroke-width="0.5"></path><path stroke="#191919" stroke-linecap="round" stroke-linejoin="round" d="M20.7651875 4.40625a0.9791666666666666 0.9791666666666666 0 0 1 0.2868958333333333 0.6922708333333333V22.03125a0.9791666666666666 0.9791666666666666 0 0 1 -0.9791666666666666 0.9791666666666666h-16.645833333333332a0.9791666666666666 0.9791666666666666 0 0 1 -0.9791666666666666 -0.9791666666666666v-20.5625a0.9791666666666666 0.9791666666666666 0 0 1 0.9791666666666666 -0.9791666666666666h13.016062499999999a0.9791666666666666 0.9791666666666666 0 0 1 0.6922708333333333 0.2868958333333333L20.7651875 4.40625Z" stroke-width="0.5"></path><path stroke="#191919" stroke-linecap="round" stroke-linejoin="round" d="m5.875 7.609104166666667 1.0604375 1.0594583333333334a0.4895833333333333 0.4895833333333333 0 0 0 0.7441666666666666 -0.06070833333333333L9.791666666666666 5.650770833333333" stroke-width="0.5"></path><path stroke="#191919" stroke-linecap="round" stroke-linejoin="round" d="M13.21875 7.34375h3.9166666666666665" stroke-width="0.5"></path><path stroke="#191919" stroke-linecap="round" stroke-linejoin="round" d="m5.875 12.5049375 1.0604375 1.0594583333333334a0.4895833333333333 0.4895833333333333 0 0 0 0.7441666666666666 -0.06070833333333333L9.791666666666666 10.546604166666667" stroke-width="0.5"></path><path stroke="#191919" stroke-linecap="round" stroke-linejoin="round" d="M13.21875 12.239583333333332h3.9166666666666665" stroke-width="0.5"></path><path stroke="#191919" stroke-linecap="round" stroke-linejoin="round" d="m5.875 17.400770833333333 1.0604375 1.0594583333333334a0.4895833333333333 0.4895833333333333 0 0 0 0.7441666666666666 -0.06070833333333333L9.791666666666666 15.4424375" stroke-width="0.5"></path><path stroke="#191919" stroke-linecap="round" stroke-linejoin="round" d="M13.21875 17.135416666666664h3.9166666666666665" stroke-width="0.5"></path></svg>