<svg xmlns="http://www.w3.org/2000/svg" fill="none" viewBox="0 0 24 24" id="Paper-Write--Streamline-Ultimate"><desc>Paper Write Streamline Icon: https://streamlinehq.com</desc><path fill="#ffdda1" d="M17.51 3.5c0.2652 0 0.5196 0.10536 0.7071 0.29289 0.1876 0.18754 0.2929 0.44189 0.2929 0.70711v18c0 0.2652 -0.1053 0.5196 -0.2929 0.7071 -0.1875 0.1875 -0.4419 0.2929 -0.7071 0.2929H1.51001c-0.26522 0 -0.519571 -0.1054 -0.707107 -0.2929C0.615367 23.0196 0.51001 22.7652 0.51001 22.5v-18c0 -0.26522 0.105357 -0.51957 0.292893 -0.70711C0.990439 3.60536 1.24479 3.5 1.51001 3.5H17.51Z" stroke-width="1"></path><path fill="#ffbc44" d="m18.51 14.2209 -2.864 1.335 -2.136 2.947 3.631 0.258 1.369 -0.639v-3.901Z" stroke-width="1"></path><path fill="#ffbc44" d="M15 6.5c0 0.26522 -0.1054 0.51957 -0.2929 0.70711C14.5196 7.39464 14.2652 7.5 14 7.5H5c-0.26522 0 -0.51957 -0.10536 -0.70711 -0.29289C4.10536 7.01957 4 6.76522 4 6.5v-3h11v3Z" stroke-width="1"></path><path stroke="#191919" stroke-linecap="round" stroke-linejoin="round" d="M18.51 19v3.5c0 0.2652 -0.1053 0.5196 -0.2929 0.7071 -0.1875 0.1875 -0.4419 0.2929 -0.7071 0.2929H1.51001c-0.26522 0 -0.519571 -0.1054 -0.707107 -0.2929C0.615367 23.0196 0.51001 22.7652 0.51001 22.5v-18c0 -0.26522 0.105357 -0.51957 0.292893 -0.70711C0.990439 3.60536 1.24479 3.5 1.51001 3.5h3" stroke-width="1"></path><path stroke="#191919" stroke-linecap="round" stroke-linejoin="round" d="M14.51 3.5h3c0.2652 0 0.5196 0.10536 0.7071 0.29289 0.1876 0.18754 0.2929 0.44189 0.2929 0.70711V8" stroke-width="1"></path><path fill="#e4f1f5" d="M10.925 2.5h2.585c0.2652 0 0.5196 0.10536 0.7071 0.29289 0.1876 0.18754 0.2929 0.44189 0.2929 0.70711v1c0 0.26522 -0.1053 0.51957 -0.2929 0.70711 -0.1875 0.18753 -0.4419 0.29289 -0.7071 0.29289H5.51001c-0.26522 0 -0.51957 -0.10536 -0.70711 -0.29289 -0.18753 -0.18754 -0.29289 -0.44189 -0.29289 -0.70711v-1c0 -0.26522 0.10536 -0.51957 0.29289 -0.70711 0.18754 -0.18753 0.44189 -0.29289 0.70711 -0.29289h2.59" stroke-width="1"></path><path stroke="#191919" stroke-linecap="round" stroke-linejoin="round" d="M10.925 2.5h2.585c0.2652 0 0.5196 0.10536 0.7071 0.29289 0.1876 0.18754 0.2929 0.44189 0.2929 0.70711v1c0 0.26522 -0.1053 0.51957 -0.2929 0.70711 -0.1875 0.18753 -0.4419 0.29289 -0.7071 0.29289H5.51001c-0.26522 0 -0.51957 -0.10536 -0.70711 -0.29289 -0.18753 -0.18754 -0.29289 -0.44189 -0.29289 -0.70711v-1c0 -0.26522 0.10536 -0.51957 0.29289 -0.70711 0.18754 -0.18753 0.44189 -0.29289 0.70711 -0.29289h2.59" stroke-width="1"></path><path fill="#98b7c0" stroke="#191919" stroke-linecap="round" stroke-linejoin="round" d="M9.51001 3.5c0.29667 0 0.58669 -0.08797 0.83339 -0.25279 0.2466 -0.16483 0.4389 -0.39909 0.5524 -0.67318 0.1136 -0.27409 0.1433 -0.57569 0.0854 -0.86666 -0.0579 -0.29098 -0.2008 -0.55825 -0.4105 -0.768029 -0.2098 -0.209779 -0.4771 -0.35264 -0.76806 -0.410518 -0.29097 -0.057878 -0.59257 -0.028173 -0.86666 0.085358 -0.27408 0.113532 -0.50835 0.305791 -0.67318 0.552469 -0.16482 0.24667 -0.25279 0.53668 -0.25279 0.83335 0 0.39783 0.15803 0.77936 0.43934 1.06066 0.2813 0.28131 0.66284 0.43934 1.06066 0.43934v0Z" stroke-width="1"></path><path stroke="#191919" stroke-linecap="round" stroke-linejoin="round" d="M3.51001 9.5H15.51" stroke-width="1"></path><path stroke="#191919" stroke-linecap="round" stroke-linejoin="round" d="M3.51001 13.5H12.976" stroke-width="1"></path><path stroke="#191919" stroke-linecap="round" stroke-linejoin="round" d="M3.51001 17.5H11.493" stroke-width="1"></path><path fill="#66e1ff" stroke="#191919" stroke-linecap="round" stroke-linejoin="round" d="m17.01 17.5 -3.5 1 1 -3.5 5.982 -5.98203c0.3333 -0.32268 0.7801 -0.50141 1.2441 -0.49765 0.4639 0.00377 0.9077 0.18973 1.2358 0.51778 0.328 0.32805 0.514 0.77189 0.5178 1.2358 0.0037 0.4639 -0.175 0.9107 -0.4977 1.2441L17.01 17.5Z" stroke-width="1"></path></svg>