<svg xmlns="http://www.w3.org/2000/svg" fill="none" viewBox="-0.25 -0.25 24 24" id="Task-List-Question--Streamline-Ultimate"><desc>Task List Question Streamline Icon: https://streamlinehq.com</desc><path fill="#c77f67" d="M17.135416666666664 3.427083333333333a0.9791666666666666 0.9791666666666666 0 0 0 -0.9791666666666666 -0.9791666666666666h-4.355333333333333a3.260625 3.260625 0 0 0 -5.972916666666666 0H1.46875a0.9791666666666666 0.9791666666666666 0 0 0 -0.9791666666666666 0.9791666666666666v16.645833333333332a0.9791666666666666 0.9791666666666666 0 0 0 0.9791666666666666 0.9791666666666666h14.6875a0.9791666666666666 0.9791666666666666 0 0 0 0.9791666666666666 -0.9791666666666666v-16.645833333333332Z" stroke-width="0.5"></path><path fill="#e3e3e3" d="M14.197916666666666 5.385416666666666h-10.770833333333332v12.729166666666666h10.770833333333332v-12.729166666666666Z" stroke-width="0.5"></path><path fill="#ffffff" d="m3.427083333333333 16.1944375 10.770833333333332 -10.770833333333332v-0.04014583333333333h-10.770833333333332v10.810979166666666Z" stroke-width="0.5"></path><path stroke="#191919" stroke-linecap="round" stroke-linejoin="round" d="M14.197916666666666 9.302083333333332v-3.9166666666666665h-10.770833333333332v12.729166666666666h4.895833333333333" stroke-width="0.5"></path><path stroke="#191919" stroke-linecap="round" stroke-linejoin="round" d="M17.135416666666664 8.322916666666666v-4.895833333333333a0.9791666666666666 0.9791666666666666 0 0 0 -0.9791666666666666 -0.9791666666666666h-4.355333333333333a3.260625 3.260625 0 0 0 -5.972916666666666 0H1.46875a0.9791666666666666 0.9791666666666666 0 0 0 -0.9791666666666666 0.9791666666666666v16.645833333333332a0.9791666666666666 0.9791666666666666 0 0 0 0.9791666666666666 0.9791666666666666h7.833333333333333" stroke-width="0.5"></path><path stroke="#191919" stroke-linecap="round" stroke-linejoin="round" d="M6.364583333333333 8.322916666666666h4.895833333333333" stroke-width="0.5"></path><path stroke="#191919" stroke-linecap="round" stroke-linejoin="round" d="M6.364583333333333 11.260416666666666h4.895833333333333" stroke-width="0.5"></path><path stroke="#191919" stroke-linecap="round" stroke-linejoin="round" d="M6.364583333333333 14.197916666666666h2.9375" stroke-width="0.5"></path><path fill="#ffef5e" d="M17.135416666666664 22.997687499999998a5.875 5.875 0 1 0 0 -11.75 5.875 5.875 0 0 0 0 11.75Z" stroke-width="0.5"></path><path fill="#fff9bf" d="M17.135416666666664 11.246708333333334A5.875 5.875 0 0 0 13.2745625 21.541666666666664l8.281791666666667 -8.281791666666667a5.852479166666667 5.852479166666667 0 0 0 -4.420937499999999 -2.0131666666666668Z" stroke-width="0.5"></path><path stroke="#191919" stroke-linecap="round" stroke-linejoin="round" d="M17.135416666666664 22.997687499999998a5.875 5.875 0 1 0 0 -11.75 5.875 5.875 0 0 0 0 11.75v0Z" stroke-width="0.5"></path><path stroke="#191919" stroke-linecap="round" stroke-linejoin="round" d="M15.299479166666666 15.697020833333331a1.8359375 1.8359375 0 1 1 1.8359375 1.8359375v0.9791666666666666" stroke-width="0.5"></path><path stroke="#191919" d="M17.135416666666664 20.960041666666665a0.24479166666666666 0.24479166666666666 0 1 1 0 -0.4895833333333333" stroke-width="0.5"></path><path stroke="#191919" d="M17.135416666666664 20.960041666666665a0.24479166666666666 0.24479166666666666 0 1 0 0 -0.4895833333333333" stroke-width="0.5"></path></svg>