<svg xmlns="http://www.w3.org/2000/svg" fill="none" viewBox="0 0 24 24" id="Ranking-First--Streamline-Ultimate"><desc>Ranking First Streamline Icon: https://streamlinehq.com</desc><path fill="#ffbc44" d="M23 21c0.1326 0 0.2598 -0.0527 0.3536 -0.1464 0.0937 -0.0938 0.1464 -0.221 0.1464 -0.3536v-9c-0.0125 -0.3272 -0.0886 -0.6489 -0.224 -0.947l-1.052 -2.106c-0.0737 -0.1291 -0.1786 -0.23765 -0.305 -0.31574 -0.1265 -0.07809 -0.2706 -0.12322 -0.419 -0.13126h-5V6l-1.276 -2.553c-0.0737 -0.1291 -0.1786 -0.23765 -0.305 -0.31574 -0.1265 -0.07809 -0.2706 -0.12322 -0.419 -0.13126h-5c-0.14843 0.00804 -0.29247 0.05317 -0.41895 0.13126 -0.12648 0.07809 -0.23136 0.18664 -0.30505 0.31574L7.5 6v2h-5c-0.14843 0.00804 -0.29247 0.05317 -0.41895 0.13126 -0.12648 0.07809 -0.23136 0.18664 -0.30505 0.31574L0.723 10.552c-0.135219 0.2985 -0.210964 0.6205 -0.223 0.948v9c0 0.1326 0.052678 0.2598 0.146447 0.3536C0.740215 20.9473 0.867392 21 1 21h22Z" stroke-width="1"></path><path fill="#ffe4b4" d="M23.431 11c-0.0351 -0.1544 -0.0867 -0.3046 -0.154 -0.448l-1.053 -2.105c-0.0737 -0.1291 -0.1786 -0.23765 -0.305 -0.31574 -0.1265 -0.07809 -0.2706 -0.12322 -0.419 -0.13126h-5v3h6.931Z" stroke-width="1"></path><path fill="#ffe4b4" d="M15.224 3.447c-0.0737 -0.1291 -0.1786 -0.23765 -0.305 -0.31574 -0.1265 -0.07809 -0.2706 -0.12322 -0.419 -0.13126h-5c-0.14843 0.00804 -0.29247 0.05317 -0.41895 0.13126 -0.12648 0.07809 -0.23136 0.18664 -0.30505 0.31574L7.5 6h9l-1.276 -2.553Z" stroke-width="1"></path><path fill="#ffe4b4" d="M7.5 8h-5c-0.14843 0.00804 -0.29247 0.05317 -0.41895 0.13126 -0.12648 0.07809 -0.23136 0.18664 -0.30505 0.31574L0.723 10.552c-0.135219 0.2985 -0.210964 0.6205 -0.223 0.948h7V8Z" stroke-width="1"></path><path stroke="#191919" stroke-linecap="round" stroke-linejoin="round" d="M16.5 6h-9v15h9V6Z" stroke-width="1"></path><path stroke="#191919" stroke-linecap="round" stroke-linejoin="round" d="M16.5 11V8h5c0.1484 0.00804 0.2925 0.05317 0.419 0.13126 0.1264 0.07809 0.2313 0.18664 0.305 0.31574l1.053 2.105c0.1354 0.2981 0.2115 0.6198 0.224 0.947v9c0 0.1326 -0.0527 0.2598 -0.1464 0.3536 -0.0938 0.0937 -0.221 0.1464 -0.3536 0.1464H16.5V11Z" stroke-width="1"></path><path stroke="#191919" stroke-linecap="round" stroke-linejoin="round" d="M7.5 11V8h-5c-0.14843 0.00804 -0.29247 0.05317 -0.41895 0.13126 -0.12648 0.07809 -0.23136 0.18664 -0.30505 0.31574L0.723 10.552c-0.135219 0.2985 -0.210964 0.6205 -0.223 0.948v9c0 0.1326 0.052678 0.2598 0.146447 0.3536C0.740215 20.9473 0.867392 21 1 21h6.5V11Z" stroke-width="1"></path><path stroke="#191919" stroke-linecap="round" stroke-linejoin="round" d="m7.5 6 1.276 -2.553c0.07369 -0.1291 0.17857 -0.23765 0.30505 -0.31574C9.20753 3.05317 9.35157 3.00804 9.5 3h5c0.1484 0.00804 0.2925 0.05317 0.419 0.13126 0.1264 0.07809 0.2313 0.18664 0.305 0.31574L16.5 6h-9Z" stroke-width="1"></path><path stroke="#191919" stroke-linecap="round" stroke-linejoin="round" d="M16.5 11h7" stroke-width="1"></path><path stroke="#191919" stroke-linecap="round" stroke-linejoin="round" d="M19.032 14.741c0.0483 -0.1802 0.1461 -0.3433 0.2822 -0.4708 0.1362 -0.1275 0.3053 -0.2144 0.4882 -0.2509 0.183 -0.0365 0.3725 -0.021 0.5471 0.0446 0.1746 0.0655 0.3274 0.1787 0.4411 0.3266 0.1137 0.1479 0.1838 0.3246 0.2023 0.5102 0.0186 0.1857 -0.0152 0.3728 -0.0975 0.5402 -0.0822 0.1674 -0.2097 0.3085 -0.3679 0.4073s-0.341 0.1514 -0.5275 0.1518c0.1862 0.0002 0.3686 0.0523 0.5267 0.1505 0.1582 0.0982 0.2858 0.2386 0.3684 0.4054 0.0827 0.1668 0.1172 0.3534 0.0996 0.5387 -0.0177 0.1853 -0.0867 0.3621 -0.1993 0.5103s-0.2643 0.2621 -0.4381 0.3288c-0.1739 0.0666 -0.3628 0.0835 -0.5457 0.0486 -0.1829 -0.035 -0.3523 -0.1202 -0.4894 -0.2462 -0.137 -0.126 -0.2361 -0.2878 -0.2862 -0.4671" stroke-width="1"></path><path stroke="#191919" stroke-linecap="round" stroke-linejoin="round" d="M3 15c0 -0.2652 0.10536 -0.5196 0.29289 -0.7071C3.48043 14.1054 3.73478 14 4 14v0c0.26522 0 0.51957 0.1054 0.70711 0.2929C4.89464 14.4804 5 14.7348 5 15c0.00019 0.3235 -0.10986 0.6374 -0.312 0.89L3 18h2" stroke-width="1"></path><path stroke="#191919" stroke-linecap="round" stroke-linejoin="round" d="M11.5 11h0.5c0.1326 0 0.2598 0.0527 0.3536 0.1464 0.0937 0.0938 0.1464 0.221 0.1464 0.3536V15" stroke-width="1"></path><path stroke="#191919" stroke-linecap="round" stroke-linejoin="round" d="M11.498 15h2" stroke-width="1"></path><path stroke="#191919" stroke-linecap="round" stroke-linejoin="round" d="M0.5 11.5h7" stroke-width="1"></path></svg>