<svg xmlns="http://www.w3.org/2000/svg" fill="none" viewBox="-0.25 -0.25 24 24" id="Search-1--Streamline-Ultimate"><desc>Search 1 Streamline Icon: https://streamlinehq.com</desc><path fill="#66e1ff" d="M10.28125 20.072916666666664c5.4077416666666664 0 9.791666666666666 -4.383925 9.791666666666666 -9.791666666666666 0 -5.407790625 -4.383925 -9.791666666666666 -9.791666666666666 -9.791666666666666 -5.407790625 0 -9.791666666666666 4.3838760416666664 -9.791666666666666 9.791666666666666 0 5.4077416666666664 4.3838760416666664 9.791666666666666 9.791666666666666 9.791666666666666Z" stroke-width="0.5"></path><path fill="#c2f3ff" d="M3.3575429166666666 17.2049375C1.5345402083333333 15.365866666666665 0.5142367916666667 12.879566666666667 0.5199071458333333 10.2900625 0.5255775 7.700636666666667 1.5567574999999998 5.218840833333333 3.3877991666666665 3.3877991666666665c1.8310416666666667 -1.8310416666666667 4.3128375000000005 -2.8622216666666667 6.902263333333333 -2.867892020833333 2.5895041666666665 -0.005670354166666666 5.075804166666666 1.0146330625 6.914875 2.8376357708333333L3.3575429166666666 17.2049375Z" stroke-width="0.5"></path><path stroke="#191919" stroke-linecap="round" stroke-linejoin="round" d="M10.28125 20.072916666666664c5.4077416666666664 0 9.791666666666666 -4.383925 9.791666666666666 -9.791666666666666 0 -5.407790625 -4.383925 -9.791666666666666 -9.791666666666666 -9.791666666666666 -5.407790625 0 -9.791666666666666 4.3838760416666664 -9.791666666666666 9.791666666666666 0 5.4077416666666664 4.3838760416666664 9.791666666666666 9.791666666666666 9.791666666666666Z" stroke-width="0.5"></path><path stroke="#191919" stroke-linecap="round" stroke-linejoin="round" d="m23.010416666666664 23.010416666666664 -5.805479166666666 -5.805479166666666" stroke-width="0.5"></path></svg>