<svg xmlns="http://www.w3.org/2000/svg" fill="none" viewBox="-0.25 -0.25 24 24" id="Space-Ship-1--Streamline-Ultimate"><desc>Space Ship 1 Streamline Icon: https://streamlinehq.com</desc><path fill="#357612" d="m16.90041666666667 16.636041666666664 -3.456458333333333 3.456458333333333c-0.2310833333333333 0.23451041666666664 -0.5225812499999999 0.40057708333333336 -0.8420833333333333 0.4797916666666666 -0.33467916666666664 0.10349791666666666 -0.6913895833333332 0.11358333333333334 -1.03135625 0.028983333333333333 -0.33996666666666664 -0.0846 -0.6503625 -0.26045833333333335 -0.8976020833333332 -0.508775l-7.617916666666667 -7.617916666666667c-0.24147229166666664 -0.24156041666666667 -0.41483374999999995 -0.5426541666666667 -0.5025279166666666 -0.8728291666666667 -0.08769416666666667 -0.330175 -0.08660729166666667 -0.6775833333333332 0.0031529166666666667 -1.0071708333333333 0.07937124999999999 -0.3380083333333333 0.25244875 -0.6468375 0.499375 -0.8910416666666666l3.46625 -3.456458333333333 10.379166666666666 10.388958333333333Z" stroke-width="0.5"></path><path fill="#4ca61c" d="M7.962583333333333 7.689395833333333c-0.1723333333333333 0.13316666666666668 -0.3446666666666666 0.264375 -0.517 0.4063541666666666l-0.6619166666666667 0.5444166666666667c-0.761194375 0.6111175 -1.3792835416666667 1.3816041666666667 -1.810821875 2.257175 -0.43152854166666665 0.8755708333333333 -0.6660389583333333 1.83505625 -0.6870322916666667 2.8109916666666668l5.2170000000000005 5.2170000000000005c0.9755437499999999 -0.021247916666666665 1.9345395833333332 -0.25585624999999995 2.80971875 -0.6871791666666667 0.8751791666666666 -0.43132291666666667 1.6453916666666666 -1.0490791666666666 2.2564895833333334 -1.8096958333333333l0.5444166666666667 -0.6628958333333334c0.14002083333333332 -0.17037499999999997 0.27025 -0.34074999999999994 0.40243749999999995 -0.5121041666666667L7.962583333333333 7.689395833333333Z" stroke-width="0.5"></path><path stroke="#191919" stroke-linecap="round" stroke-linejoin="round" d="m16.90041666666667 16.636041666666664 -3.456458333333333 3.456458333333333c-0.2310833333333333 0.23451041666666664 -0.5225812499999999 0.40057708333333336 -0.8420833333333333 0.4797916666666666 -0.33467916666666664 0.10349791666666666 -0.6913895833333332 0.11358333333333334 -1.03135625 0.028983333333333333 -0.33996666666666664 -0.0846 -0.6503625 -0.26045833333333335 -0.8976020833333332 -0.508775l-7.617916666666667 -7.617916666666667c-0.24147229166666664 -0.24156041666666667 -0.41483374999999995 -0.5426541666666667 -0.5025279166666666 -0.8728291666666667 -0.08769416666666667 -0.330175 -0.08660729166666667 -0.6775833333333332 0.0031529166666666667 -1.0071708333333333 0.07937124999999999 -0.3380083333333333 0.25244875 -0.6468375 0.499375 -0.8910416666666666l3.46625 -3.456458333333333 10.379166666666666 10.388958333333333Z" stroke-width="0.5"></path><path fill="#4ca61c" d="m6.5183124999999995 6.246094374999999 3.8275624999999995 -2.551708333333333c1.2633208333333332 -0.839919375 2.7783854166666666 -1.2166537499999999 4.28786875 -1.0662341666666668 1.50958125 0.15041958333333333 2.9204625 0.8187302083333332 3.9932374999999998 1.8914268749999998 1.0726770833333332 1.0726966666666666 1.7409583333333334 2.483626875 1.8913583333333333 3.993168958333333 0.15039999999999998 1.5095127083333333 -0.22628541666666666 3.0245772916666667 -1.0662145833333332 4.287898125l-2.551708333333333 3.8275624999999995L6.5183124999999995 6.246094374999999Z" stroke-width="0.5"></path><path fill="#72be51" d="M15.5188125 15.246604166666666c3.060875 -3.955833333333333 5.679166666666666 -7.577770833333333 3.3595208333333333 -10.4721875 -2.3196458333333334 -2.8944166666666664 -6.959916666666666 -0.14491666666666667 -10.916729166666665 2.9149791666666665l7.557208333333333 7.557208333333333Z" stroke-width="0.5"></path><path stroke="#191919" stroke-linecap="round" stroke-linejoin="round" d="m6.5183124999999995 6.246094374999999 3.8275624999999995 -2.551708333333333c1.2633208333333332 -0.839919375 2.7783854166666666 -1.2166537499999999 4.28786875 -1.0662341666666668 1.50958125 0.15041958333333333 2.9204625 0.8187302083333332 3.9932374999999998 1.8914268749999998 1.0726770833333332 1.0726966666666666 1.7409583333333334 2.483626875 1.8913583333333333 3.993168958333333 0.15039999999999998 1.5095127083333333 -0.22628541666666666 3.0245772916666667 -1.0662145833333332 4.287898125l-2.551708333333333 3.8275624999999995L6.5183124999999995 6.246094374999999Z" stroke-width="0.5"></path><path fill="#66e1ff" stroke="#191919" stroke-linecap="round" stroke-linejoin="round" d="M14.826541666666666 10.770833333333332c1.3519354166666666 0 2.4479166666666665 -1.095971458333333 2.4479166666666665 -2.4479166666666665S16.178477083333334 5.875 14.826541666666666 5.875s-2.4479166666666665 1.095971458333333 -2.4479166666666665 2.4479166666666665 1.09598125 2.4479166666666665 2.4479166666666665 2.4479166666666665Z" stroke-width="0.5"></path><path fill="#ffeb1d" stroke="#191919" stroke-linecap="round" stroke-linejoin="round" d="m6.52125 6.247093125 -3.46625 3.456458333333333c-0.24691645833333334 0.244194375 -0.42000374999999995 0.5530235416666667 -0.499375 0.8910318749999999L0.9791666666666666 9.018134791666666c-0.18344589583333332 -0.18487645833333333 -0.2863866666666667 -0.4347695833333333 -0.2863866666666667 -0.6952083333333333 0 -0.26044854166666664 0.10294077083333333 -0.5103416666666667 0.2863866666666667 -0.6952083333333333l0.235 -0.235c0.36400520833333333 -0.36360375 0.7960820833333333 -0.6519291666666666 1.2715458333333332 -0.848496875 0.47546375 -0.19656770833333334 0.9850024999999999 -0.29753937499999994 1.4994958333333335 -0.29712812499999997h2.5360416666666663Z" stroke-width="0.5"></path><path fill="#ffeb1d" stroke="#191919" stroke-linecap="round" stroke-linejoin="round" d="M16.90041666666667 16.636041666666664v2.52625c0.0003916666666666667 0.5144541666666667 -0.10056041666666667 1.0240125 -0.2971770833333333 1.4994958333333335 -0.19651875 0.4754833333333333 -0.4848833333333333 0.9074916666666666 -0.8484479166666666 1.2715458333333332l-0.235 0.235c-0.18349583333333333 0.18232083333333332 -0.43161666666666665 0.28474166666666667 -0.6903124999999999 0.28474166666666667 -0.2586958333333333 0 -0.5068166666666666 -0.10242083333333332 -0.6903124999999999 -0.28474166666666667l-1.5372916666666667 -1.5960416666666666c0.3196 -0.0793125 0.611 -0.24528124999999998 0.8420833333333333 -0.4797916666666666l3.456458333333333 -3.456458333333333Z" stroke-width="0.5"></path><path stroke="#191919" stroke-linecap="round" stroke-linejoin="round" d="M3.2243958333333333 0.4895833333333333v1.9583333333333333" stroke-width="0.5"></path><path stroke="#191919" stroke-linecap="round" stroke-linejoin="round" d="M4.2035625 1.46875h-1.9583333333333333" stroke-width="0.5"></path><path stroke="#191919" stroke-linecap="round" stroke-linejoin="round" d="M21.828562499999997 15.177083333333332v1.9583333333333333" stroke-width="0.5"></path><path stroke="#191919" stroke-linecap="round" stroke-linejoin="round" d="M22.807729166666665 16.15625h-1.9583333333333333" stroke-width="0.5"></path><path stroke="#191919" stroke-linecap="round" stroke-linejoin="round" d="M4.2035625 21.052083333333332v1.9583333333333333" stroke-width="0.5"></path><path stroke="#191919" stroke-linecap="round" stroke-linejoin="round" d="M5.182729166666666 22.03125h-1.9583333333333333" stroke-width="0.5"></path><path stroke="#191919" stroke-linecap="round" stroke-linejoin="round" d="M2.7348125 16.890625c0.06491875 0 0.12718395833333335 0.02575208333333333 0.17309708333333332 0.071675 0.04590333333333333 0.04592291666666666 0.07169458333333333 0.10819791666666666 0.07169458333333333 0.17311666666666667" stroke-width="0.5"></path><path stroke="#191919" stroke-linecap="round" stroke-linejoin="round" d="M2.4900208333333333 17.135416666666664c0 -0.06491875 0.025791249999999998 -0.12719375 0.07169458333333333 -0.17311666666666667 0.045913125 -0.04592291666666666 0.10817833333333332 -0.071675 0.17309708333333332 -0.071675" stroke-width="0.5"></path><path stroke="#191919" stroke-linecap="round" stroke-linejoin="round" d="M2.7348125 17.380208333333332c-0.06491875 0 -0.12718395833333335 -0.02575208333333333 -0.17309708333333332 -0.071675 -0.04590333333333333 -0.04592291666666666 -0.07169458333333333 -0.10819791666666666 -0.07169458333333333 -0.17311666666666667" stroke-width="0.5"></path><path stroke="#191919" stroke-linecap="round" stroke-linejoin="round" d="M2.979604166666667 17.135416666666664c0 0.06491875 -0.025791249999999998 0.12719375 -0.07169458333333333 0.17311666666666667 -0.045913125 0.04592291666666666 -0.10817833333333332 0.071675 -0.17309708333333332 0.071675" stroke-width="0.5"></path><path stroke="#191919" stroke-linecap="round" stroke-linejoin="round" d="M8.609812499999999 1.2239583333333333c0.06491875 0 0.12718395833333335 0.025791249999999998 0.17309708333333332 0.07169458333333333 0.04590333333333333 0.045913125 0.07169458333333333 0.10817833333333332 0.07169458333333333 0.17309708333333332" stroke-width="0.5"></path><path stroke="#191919" stroke-linecap="round" stroke-linejoin="round" d="M8.365020833333332 1.46875c0 -0.06491875 0.025791249999999998 -0.12718395833333335 0.07169458333333333 -0.17309708333333332 0.045913125 -0.04590333333333333 0.10817833333333332 -0.07169458333333333 0.17309708333333332 -0.07169458333333333" stroke-width="0.5"></path><path stroke="#191919" stroke-linecap="round" stroke-linejoin="round" d="M8.609812499999999 1.7135416666666665c-0.06491875 0 -0.12718395833333335 -0.025791249999999998 -0.17309708333333332 -0.07169458333333333C8.390812083333334 1.5959339583333334 8.365020833333332 1.53366875 8.365020833333332 1.46875" stroke-width="0.5"></path><path stroke="#191919" stroke-linecap="round" stroke-linejoin="round" d="M8.854604166666666 1.46875c0 0.06491875 -0.025791249999999998 0.12718395833333335 -0.07169458333333333 0.17309708333333332 -0.045913125 0.04590333333333333 -0.10817833333333332 0.07169458333333333 -0.17309708333333332 0.07169458333333333" stroke-width="0.5"></path><path stroke="#191919" stroke-linecap="round" stroke-linejoin="round" d="M21.338979166666665 21.296875c0.06491875 0 0.12719375 0.02575208333333333 0.17311666666666667 0.071675 0.04592291666666666 0.04592291666666666 0.071675 0.10819791666666666 0.071675 0.17311666666666667" stroke-width="0.5"></path><path stroke="#191919" stroke-linecap="round" stroke-linejoin="round" d="M21.094187499999997 21.541666666666664c0 -0.06491875 0.02575208333333333 -0.12719375 0.071675 -0.17311666666666667 0.04592291666666666 -0.04592291666666666 0.10819791666666666 -0.071675 0.17311666666666667 -0.071675" stroke-width="0.5"></path><path stroke="#191919" stroke-linecap="round" stroke-linejoin="round" d="M21.338979166666665 21.786458333333332c-0.06491875 0 -0.12719375 -0.02575208333333333 -0.17311666666666667 -0.071675 -0.04592291666666666 -0.04592291666666666 -0.071675 -0.10819791666666666 -0.071675 -0.17311666666666667" stroke-width="0.5"></path><path stroke="#191919" stroke-linecap="round" stroke-linejoin="round" d="M21.583770833333332 21.541666666666664c0 0.06491875 -0.02575208333333333 0.12719375 -0.071675 0.17311666666666667 -0.04592291666666666 0.04592291666666666 -0.10819791666666666 0.071675 -0.17311666666666667 0.071675" stroke-width="0.5"></path></svg>