<svg xmlns="http://www.w3.org/2000/svg" fill="none" viewBox="0 0 24 24" id="Task-List-Cash--Streamline-Ultimate"><desc>Task List Cash Streamline Icon: https://streamlinehq.com</desc><path fill="#c77f67" d="M17.5 3.5a1 1 0 0 0 -1 -1h-4.448a3.33 3.33 0 0 0 -6.1 0H1.5a1 1 0 0 0 -1 1v17a1 1 0 0 0 1 1h15a1 1 0 0 0 1 -1v-17Z" stroke-width="1"></path><path fill="#e3e3e3" d="M14.5 5.5h-11v13h11v-13Z" stroke-width="1"></path><path fill="#ffffff" d="m3.5 16.539 11 -11v-0.041h-11v11.041Z" stroke-width="1"></path><path stroke="#191919" stroke-linecap="round" stroke-linejoin="round" d="M14.5 9.5v-4h-11v13h5" stroke-width="1"></path><path stroke="#191919" stroke-linecap="round" stroke-linejoin="round" d="M17.5 8.5v-5a1 1 0 0 0 -1 -1h-4.448a3.33 3.33 0 0 0 -6.1 0H1.5a1 1 0 0 0 -1 1v17a1 1 0 0 0 1 1h8" stroke-width="1"></path><path stroke="#191919" stroke-linecap="round" stroke-linejoin="round" d="M6.5 8.5h5" stroke-width="1"></path><path stroke="#191919" stroke-linecap="round" stroke-linejoin="round" d="M6.5 11.5h5" stroke-width="1"></path><path stroke="#191919" stroke-linecap="round" stroke-linejoin="round" d="M6.5 14.5h3" stroke-width="1"></path><path fill="#ffef5e" d="M17.5 23.486a6 6 0 1 0 0 -12 6 6 0 0 0 0 12Z" stroke-width="1"></path><path fill="#fff9bf" d="M17.5 11.486A6 6 0 0 0 13.557 22l8.458 -8.458a5.977 5.977 0 0 0 -4.515 -2.056Z" stroke-width="1"></path><path stroke="#191919" stroke-linecap="round" stroke-linejoin="round" d="M17.5 23.486a6 6 0 1 0 0 -12 6 6 0 0 0 0 12Z" stroke-width="1"></path><path stroke="#191919" stroke-linecap="round" stroke-linejoin="round" d="M19 14.506h-2.037a1.342 1.342 0 0 0 -0.5 2.588l2.063 0.825a1.342 1.342 0 0 1 -0.5 2.587H16" stroke-width="1"></path><path stroke="#191919" stroke-linecap="round" stroke-linejoin="round" d="M17.5 21.506v-1" stroke-width="1"></path><path stroke="#191919" stroke-linecap="round" stroke-linejoin="round" d="M17.5 14.506v-1" stroke-width="1"></path></svg>