<svg xmlns="http://www.w3.org/2000/svg" fill="none" viewBox="-0.25 -0.25 24 24" id="Task-List-Edit--Streamline-Ultimate"><desc>Task List Edit Streamline Icon: https://streamlinehq.com</desc><path fill="#263d61" d="M18.114583333333332 21.052083333333332a1.9583333333333333 1.9583333333333333 0 0 1 -1.9583333333333333 1.9583333333333333h-13.708333333333332a1.9583333333333333 1.9583333333333333 0 0 1 -1.9583333333333333 -1.9583333333333333v-18.604166666666664a1.9583333333333333 1.9583333333333333 0 0 1 1.9583333333333333 -1.9583333333333333h13.708333333333332a1.9583333333333333 1.9583333333333333 0 0 1 1.9583333333333333 1.9583333333333333v18.604166666666664Z" stroke-width="0.5"></path><path fill="#ffffff" d="M13.21875 2.4479166666666665h1.9583333333333333a0.9791666666666666 0.9791666666666666 0 0 1 0.9791666666666666 0.9791666666666666v16.645833333333332a0.9791666666666666 0.9791666666666666 0 0 1 -0.9791666666666666 0.9791666666666666h-11.75a0.9791666666666666 0.9791666666666666 0 0 1 -0.9791666666666666 -0.9791666666666666v-16.645833333333332a0.9791666666666666 0.9791666666666666 0 0 1 0.9791666666666666 -0.9791666666666666h1.9583333333333333" stroke-width="0.5"></path><path fill="#5a88d9" stroke="#000000" stroke-linecap="round" stroke-linejoin="round" d="m19.46975 4.699020833333334 -11.084166666666667 11.074375 2.075833333333333 2.075833333333333 11.084166666666667 -11.074375 -2.075833333333333 -2.075833333333333Z" stroke-width="0.5"></path><path fill="#ccb152" stroke="#000000" stroke-linecap="round" stroke-linejoin="round" d="M22.5835 5.737916666666667 21.541666666666664 6.775833333333333 19.46975 4.699999999999999l1.0379166666666666 -1.0379166666666666a1.4599375 1.4599375 0 0 1 2.075833333333333 0 1.4785416666666666 1.4785416666666666 0 0 1 0 2.075833333333333v0Z" stroke-width="0.5"></path><path fill="#ffffff" d="M15.889916666666668 2.7632083333333335A0.9674166666666666 0.9674166666666666 0 0 0 15.177083333333332 2.4479166666666665h-11.75a0.9791666666666666 0.9791666666666666 0 0 0 -0.9791666666666666 0.9791666666666666v12.777145833333332L15.889916666666668 2.7632083333333335Z" stroke-width="0.5"></path><path fill="#ffbc44" stroke="#000000" stroke-linecap="round" stroke-linejoin="round" d="M8.387541666666667 15.775354166666666 7.147916666666666 19.09375l3.318395833333333 -1.2415833333333333 -2.0787708333333335 -2.0768125Z" stroke-width="0.5"></path><path stroke="#000000" stroke-linecap="round" stroke-linejoin="round" d="m4.40625 11.260416666666666 0.358375 0.71675a0.47391666666666665 0.47391666666666665 0 0 0 0.7598333333333334 0.123375L7.34375 10.28125" stroke-width="0.5"></path><path stroke="#000000" stroke-linecap="round" stroke-linejoin="round" d="M9.302083333333332 11.260416666666666h0.9791666666666666" stroke-width="0.5"></path><path fill="#ffffff" stroke="#000000" stroke-linecap="round" stroke-linejoin="round" d="M5.385416666666666 0.4895833333333333h7.833333333333333v1.9583333333333333a0.9791666666666666 0.9791666666666666 0 0 1 -0.9791666666666666 0.9791666666666666h-5.875a0.9791666666666666 0.9791666666666666 0 0 1 -0.9791666666666666 -0.9791666666666666v-1.9583333333333333Z" stroke-width="0.5"></path><path stroke="#000000" stroke-linecap="round" stroke-linejoin="round" d="m4.40625 7.34375 0.358375 0.71675a0.47391666666666665 0.47391666666666665 0 0 0 0.7598333333333334 0.123375L7.34375 6.364583333333333" stroke-width="0.5"></path><path stroke="#000000" stroke-linecap="round" stroke-linejoin="round" d="M9.302083333333332 7.34375h3.9166666666666665" stroke-width="0.5"></path><path stroke="#000000" stroke-linecap="round" stroke-linejoin="round" d="M18.114583333333332 13.21875v7.833333333333333a1.9583333333333333 1.9583333333333333 0 0 1 -1.9583333333333333 1.9583333333333333h-13.708333333333332a1.9583333333333333 1.9583333333333333 0 0 1 -1.9583333333333333 -1.9583333333333333v-18.604166666666664a1.9583333333333333 1.9583333333333333 0 0 1 1.9583333333333333 -1.9583333333333333h13.708333333333332a1.9583333333333333 1.9583333333333333 0 0 1 1.9583333333333333 1.9583333333333333v0.9791666666666666" stroke-width="0.5"></path><path stroke="#000000" stroke-linecap="round" stroke-linejoin="round" d="M16.15625 15.177083333333332v4.895833333333333a0.9791666666666666 0.9791666666666666 0 0 1 -0.9791666666666666 0.9791666666666666h-11.75a0.9791666666666666 0.9791666666666666 0 0 1 -0.9791666666666666 -0.9791666666666666v-16.645833333333332a0.9791666666666666 0.9791666666666666 0 0 1 0.9791666666666666 -0.9791666666666666h1.9583333333333333" stroke-width="0.5"></path><path stroke="#000000" stroke-linecap="round" stroke-linejoin="round" d="M13.21875 2.4479166666666665h1.9583333333333333a0.9791666666666666 0.9791666666666666 0 0 1 0.9791666666666666 0.9791666666666666v1.9583333333333333" stroke-width="0.5"></path></svg>