<svg xmlns="http://www.w3.org/2000/svg" fill="none" viewBox="-0.25 -0.25 24 24" id="Treasure-Chest-Open--Streamline-Ultimate"><desc>Treasure Chest Open Streamline Icon: https://streamlinehq.com</desc><path fill="#ffef5e" d="M21.052083333333332 12.239583333333332c0 -2.4283333333333332 -1.8946875 -3.008 -4.40625 -2.9375 -0.49545833333333333 -2.196270833333333 -2.5507291666666667 -2.9375 -4.895833333333333 -2.9375s-4.4003749999999995 0.7412291666666666 -4.895833333333333 2.9375c-2.513520833333333 -0.0705 -4.40625 0.5091666666666667 -4.40625 2.9375h18.604166666666664Z" stroke-width="0.5"></path><path fill="#fff9bf" d="M11.75 9.768166666666668c2.7794624999999997 -0.08078125 5.503112499999999 0.7912645833333334 7.718770833333333 2.4714166666666664H21.052083333333332c0 -2.4283333333333332 -1.8946875 -3.008 -4.40625 -2.9375 -0.49545833333333333 -2.196270833333333 -2.5507291666666667 -2.9375 -4.895833333333333 -2.9375s-4.4003749999999995 0.7412291666666666 -4.895833333333333 2.9375c-2.513520833333333 -0.0705 -4.40625 0.5091666666666667 -4.40625 2.9375h1.5872291666666667C6.249776041666666 10.5603125 8.971820208333334 9.688286249999999 11.75 9.768166666666668Z" stroke-width="0.5"></path><path fill="#c77f67" stroke="#191919" stroke-linecap="round" stroke-linejoin="round" d="M23.010416666666664 14.197916666666666v6.854166666666666c-0.0015666666666666667 0.5188604166666667 -0.20836666666666664 1.01608125 -0.5752604166666667 1.3830729166666667 -0.36699166666666666 0.36689374999999996 -0.8642125 0.57369375 -1.3830729166666667 0.5752604166666667h-18.604166666666664c-0.518909375 -0.0015666666666666667 -1.016110625 -0.20836666666666664 -1.3830435416666664 -0.5752604166666667C0.6979548958333334 22.068164583333335 0.49113335416666665 21.57094375 0.4895833333333333 21.052083333333332v-6.854166666666666h8.8125c0.12984729166666667 0 0.25437770833333334 0.051602083333333326 0.346184375 0.14335 0.09181645833333334 0.09184583333333332 0.14339895833333333 0.21639583333333332 0.14339895833333333 0.34623333333333334v0.4895833333333333c0.0015666666666666667 0.5188604166666667 0.20836666666666664 1.01608125 0.5752604166666667 1.3830729166666667 0.36699166666666666 0.36689374999999996 0.8642125 0.57369375 1.3830729166666667 0.5752604166666667 0.5181749999999999 -0.0038187499999999997 1.0141229166666668 -0.21140208333333332 1.3805270833333332 -0.57780625 0.36640416666666664 -0.36640416666666664 0.5739875 -0.8623520833333334 0.57780625 -1.3805270833333332V14.6875c0 -0.1298375 0.051602083333333326 -0.2543875 0.14335 -0.34623333333333334 0.09184583333333332 -0.09174791666666667 0.21639583333333332 -0.14335 0.34623333333333334 -0.14335h8.8125Z" stroke-width="0.5"></path><path fill="#e3e3e3" stroke="#191919" stroke-linecap="round" stroke-linejoin="round" d="M23.010416666666664 12.729166666666666v1.46875h-8.8125c-0.1298375 0 -0.2543875 0.051602083333333326 -0.34623333333333334 0.14335 -0.09174791666666667 0.09184583333333332 -0.14335 0.21639583333333332 -0.14335 0.34623333333333334v0.4895833333333333c-0.0038187499999999997 0.5181749999999999 -0.21140208333333332 1.0141229166666668 -0.57780625 1.3805270833333332 -0.36640416666666664 0.36640416666666664 -0.8623520833333334 0.5739875 -1.3805270833333332 0.57780625 -0.5188604166666667 -0.0015666666666666667 -1.01608125 -0.20836666666666664 -1.3830729166666667 -0.5752604166666667 -0.36689374999999996 -0.36699166666666666 -0.57369375 -0.8642125 -0.5752604166666667 -1.3830729166666667V14.6875c0 -0.1298375 -0.051582499999999996 -0.2543875 -0.14339895833333333 -0.34623333333333334C9.556461041666667 14.24951875 9.431930625 14.197916666666666 9.302083333333332 14.197916666666666h-8.8125V12.729166666666666c0 -0.1298375 0.05158054166666667 -0.2543875 0.14339602083333333 -0.34623333333333334C0.7247938541666666 12.291185416666666 0.8493213333333334 12.239583333333332 0.9791666666666666 12.239583333333332h21.541666666666664c0.1298375 0 0.2543875 0.051602083333333326 0.34623333333333334 0.14335 0.09174791666666667 0.09184583333333332 0.14335 0.21639583333333332 0.14335 0.34623333333333334Z" stroke-width="0.5"></path><path stroke="#191919" stroke-linecap="round" stroke-linejoin="round" d="M11.75 14.197916666666666v0.9791666666666666" stroke-width="0.5"></path><path stroke="#191919" stroke-linecap="round" stroke-linejoin="round" d="M21.052083333333332 12.239583333333332c0 -2.4283333333333332 -1.8946875 -3.008 -4.40625 -2.9375 -0.49545833333333333 -2.196270833333333 -2.5507291666666667 -2.9375 -4.895833333333333 -2.9375s-4.4003749999999995 0.7412291666666666 -4.895833333333333 2.9375c-2.513520833333333 -0.0705 -4.40625 0.5091666666666667 -4.40625 2.9375h18.604166666666664Z" stroke-width="0.5"></path><path stroke="#191919" stroke-linecap="round" stroke-linejoin="round" d="M0.4895833333333333 7.34375h0.9791666666666666" stroke-width="0.5"></path><path stroke="#191919" stroke-linecap="round" stroke-linejoin="round" d="m4.40625 1.9583333333333333 0.9791666666666666 0.9791666666666666" stroke-width="0.5"></path><path stroke="#191919" stroke-linecap="round" stroke-linejoin="round" d="M23.010416666666664 7.34375h-0.9791666666666666" stroke-width="0.5"></path><path stroke="#191919" stroke-linecap="round" stroke-linejoin="round" d="m19.09375 1.9583333333333333 -0.9791666666666666 0.9791666666666666" stroke-width="0.5"></path><path stroke="#191919" stroke-linecap="round" stroke-linejoin="round" d="M11.75 0.4895833333333333V1.9583333333333333" stroke-width="0.5"></path><path stroke="#191919" stroke-linecap="round" stroke-linejoin="round" d="M6.364583333333333 14.197916666666666v8.8125" stroke-width="0.5"></path><path stroke="#191919" stroke-linecap="round" stroke-linejoin="round" d="M17.135416666666664 14.197916666666666v8.8125" stroke-width="0.5"></path></svg>